# xmcd CD database file
#
# Track frame offsets:
#	150
#	21057
#	39615
#	58385
#	79435
#	101607
#	121660
#	142950
#	158715
#	184165
#
# Disc length: 2765 seconds
#
# Revision: 0
# Processed by: cddbd v1.5PL3 Copyright (c) Steve Scherf et al.
# Submitted via: CDex 1.51
#
DISCID=820acb0a
DTITLE=ALI PROJECT - 星と月のソナタ
DYEAR=1900
DGENRE=JPop
TTITLE0=雨のソナタ〜La Pluie〜
TTITLE1=ビアンカ
TTITLE2=舞踏会の手帖
TTITLE3=雪のひとひら
TTITLE4=空宙舞踏会
TTITLE5=薔薇色翠星歌劇団
TTITLE6=冬物語
TTITLE7=月光浴
TTITLE8=彼と彼女の聖夜(イブ)
TTITLE9=共月亭で逢いましょう
EXTD=
EXTT0=
EXTT1=
EXTT2=
EXTT3=
EXTT4=
EXTT5=
EXTT6=
EXTT7=
EXTT8=
EXTT9=
PLAYORDER=
